PathFileType	4	(X/Y/Z)	./resultDataOpenSim/trcMotMarkerGrf/sub09/qtm-03-06.trc
DataRate	CameraRate	NumFrames	NumMarkers	Units	OrigDataRate	OrigDataStartFrame	OrigNumFrames
250.000000	250.000000	8	24	m	250.000000	62	492
Frame#	Time	L.Toe.Tip			R.Toe.Tip			L.Ankle.Lat			R.Ankle.Lat			L.Ankle.Med			R.Ankle.Med			L.Heel			R.Heel			L.Knee.Lat			R.Knee.Lat			L.Knee.Med			R.Knee.Med			L.Thigh.Upper			R.Thigh.Upper			L.ASIS			R.ASIS			V.Sacral			L.Acromium			R.Acromium			C7			L.Elbow			R.Elbow			L.Wrist.Lat			R.Wrist.Lat
		X1	Y1	Z1	X2	Y2	Z2	X3	Y3	Z3	X4	Y4	Z4	X5	Y5	Z5	X6	Y6	Z6	X7	Y7	Z7	X8	Y8	Z8	X9	Y9	Z9	X10	Y10	Z10	X11	Y11	Z11	X12	Y12	Z12	X13	Y13	Z13	X14	Y14	Z14	X15	Y15	Z15	X16	Y16	Z16	X17	Y17	Z17	X18	Y18	Z18	X19	Y19	Z19	X20	Y20	Z20	X21	Y21	Z21	X22	Y22	Z22	X23	Y23	Z23	X24	Y24	Z24

62	0.244	-1.4122426	0.092211736	-0.011117892	-0.70605245	0.042159833	0.15258244	-1.4343422	0.24836771	-0.051064145	-0.85394564	0.053585712	0.18678662	-1.4084965	0.23100483	0.041558759	-0.84459917	0.094867883	0.097893493	-1.4970394	0.29293081	-0.0034388221	-0.9209854	0.029439594	0.13687139	-1.0604447	0.4280557	-0.066502169	-0.81060118	0.50753092	0.25027461	-1.0567915	0.4123637	0.060132618	-0.8191063	0.49449854	0.12372329	-1.0231245	0.83460684	-0.077094592	-1.0095068	0.86322927	0.29508416	-0.93154164	0.92140642	-0.019438716	-0.9342885	0.94634685	0.2194498	-1.0994591	0.9894528	0.095831539	-0.90970727	1.3954695	-0.037063155	-0.9778226	1.3856697	0.28636799	-1.015154	1.4402097	0.12143394	-1.0071181	1.0354953	-0.12787588	-1.1297623	1.0521575	0.32708086	-0.78473293	0.88352393	-0.087778771	-1.0248394	0.80327222	0.36897522
63	0.248	-1.3997041	0.09500414	-0.011500175	-0.7059642	0.042093096	0.15257244	-1.4222423	0.2512261	-0.049872421	-0.85406995	0.053593561	0.18693114	-1.3962092	0.23317009	0.042639475	-0.84440525	0.094932028	0.097993187	-1.484844	0.2954815	-0.0017190907	-0.92100732	0.029517976	0.1369516	-1.0475615	0.42875006	-0.065780069	-0.80757813	0.50724833	0.25065445	-1.043954	0.41301587	0.061113152	-0.81630793	0.49425448	0.12427013	-1.0172487	0.83550511	-0.076609387	-1.0036225	0.86473098	0.29557099	-0.926142	0.92260369	-0.019111516	-0.92828883	0.94764607	0.21973826	-1.0938553	0.99084782	0.096455554	-0.90414268	1.3964997	-0.036850369	-0.97089389	1.3869545	0.28684029	-1.0089145	1.4416262	0.12214255	-1.0020469	1.0365809	-0.12674635	-1.1225481	1.0534147	0.32908118	-0.78102299	0.88271192	-0.088158728	-1.0168651	0.80455925	0.36904557
64	0.252	-1.3868312	0.097534691	-0.011725677	-0.70588375	0.042026408	0.15258304	-1.4098751	0.25378625	-0.048673237	-0.85423296	0.053609696	0.18709011	-1.3836727	0.2351579	0.04372482	-0.84426295	0.094981417	0.098075571	-1.4725911	0.29767913	-0.00016464669	-0.92102356	0.029609095	0.13702401	-1.0347596	0.42962992	-0.065083164	-0.80496266	0.5069442	0.25097526	-1.0312814	0.41374136	0.062107069	-0.81359728	0.49397841	0.12477001	-1.0113176	0.83650517	-0.076151599	-0.99833812	0.866215	0.29593176	-0.92071384	0.92390307	-0.018782924	-0.92230586	0.94897713	0.22002377	-1.0882968	0.99229906	0.097060499	-0.89862371	1.3975862	-0.036650267	-0.96399483	1.3882865	0.28730857	-1.002706	1.4430916	0.12286319	-0.99713729	1.037773	-0.12558477	-1.115497	1.0547111	0.33086537	-0.77758811	0.88196402	-0.088610829	-1.0090096	0.80589005	0.36907849
65	0.256	-1.3736663	0.099806356	-0.011797852	-0.70582386	0.041970877	0.15262669	-1.3972765	0.25601927	-0.047451241	-0.85430019	0.05359784	0.18719489	-1.3709638	0.23697941	0.044820863	-0.84414896	0.09504182	0.098133397	-1.4602521	0.2995304	0.0012569086	-0.92103746	0.02969807	0.13708962	-1.0220171	0.43065854	-0.064404508	-0.80273477	0.50658431	0.25122313	-1.018576	0.41453405	0.063101611	-0.81096263	0.49369966	0.12521003	-1.0053529	0.83761516	-0.075696389	-0.99322322	0.8677103	0.29625676	-0.91529142	0.92529924	-0.018453742	-0.91636055	0.9503273	0.22031621	-1.0827801	0.99379608	0.097658756	-0.89315865	1.398731	-0.036474221	-0.95711346	1.3896658	0.28776308	-0.99652977	1.4445972	0.12361357	-0.99245582	1.0390548	-0.12439852	-1.1085673	1.0560643	0.33251512	-0.77435536	0.88127588	-0.089100128	-1.0012936	0.80726731	0.36907182
66	0.26	-1.3601727	0.10184232	-0.011731494	-0.70578675	0.041934274	0.15270274	-1.3844877	0.25792331	-0.046210633	-0.85416003	0.053529065	0.18719154	-1.3581886	0.23862384	0.045951158	-0.84401777	0.095132679	0.09816718	-1.4478101	0.30104763	0.0026121713	-0.92105146	0.029774922	0.13714921	-1.0093254	0.43184141	-0.063726547	-0.80070331	0.50617307	0.25145911	-1.0053513	0.41543889	0.064082265	-0.80839899	0.49344381	0.12560511	-0.99937782	0.83884084	-0.075222532	-0.98786886	0.86923886	0.29663812	-0.90990811	0.92677655	-0.018130014	-0.91046598	0.95168308	0.22062013	-1.0772994	0.99533523	0.098253195	-0.8877447	1.3999382	-0.03632143	-0.95024502	1.3910931	0.28819679	-0.99036904	1.4461376	0.12440029	-0.98792796	1.0404023	-0.12324884	-1.1017374	1.0574741	0.33404476	-0.77122272	0.88064314	-0.089579405	-0.99362125	0.80870967	0.36902453
67	0.264	-1.3462556	0.10367789	-0.011528348	-0.70576413	0.041920514	0.15280398	-1.3715438	0.25951827	-0.044977944	-0.85381586	0.053407282	0.18708509	-1.3453466	0.2400775	0.04712108	-0.84384867	0.095250607	0.098195004	-1.435281	0.30223811	0.0039655665	-0.92106699	0.029843379	0.13719988	-0.99672045	0.43319093	-0.063012213	-0.79863335	0.50577156	0.25176542	-0.99136576	0.41648883	0.065053692	-0.8059461	0.49322493	0.12600432	-0.99340632	0.8401763	-0.074713979	-0.98222579	0.87079023	0.2970966	-0.90456649	0.92832774	-0.017807035	-0.90462726	0.95303623	0.22094044	-1.071851	0.99691945	0.098839759	-0.8823767	1.401209	-0.036173863	-0.94340421	1.3925706	0.28861677	-0.9842137	1.4477117	0.12521406	-0.98345868	1.0418119	-0.12216787	-1.0949866	1.0589273	0.33546421	-0.76815438	0.88006787	-0.090027573	-0.98589154	0.81022982	0.36893841
68	0.268	-1.3318734	0.10534444	-0.011173247	-0.70574512	0.041928782	0.15292378	-1.3584688	0.26082294	-0.043771214	-0.85341586	0.053273399	0.18695439	-1.3322991	0.24132853	0.048307285	-0.84367053	0.095374028	0.098244761	-1.4227016	0.30309453	0.0053532984	-0.92108353	0.029914242	0.13723849	-0.98426226	0.43469343	-0.062212599	-0.79645645	0.50543865	0.25216172	-0.97698699	0.4176709	0.066030787	-0.80367203	0.49304541	0.12646152	-0.98743983	0.84161001	-0.074168546	-0.97648221	0.87233408	0.29760203	-0.89923711	0.92996352	-0.017457816	-0.89884787	0.95438788	0.22128413	-1.0664501	0.99855091	0.09939716	-0.8770487	1.4025444	-0.036009962	-0.93662153	1.3941002	0.28904124	-0.97809964	1.4493159	0.12597988	-0.97900966	1.0432925	-0.1211199	-1.0882874	1.0604103	0.33681043	-0.76517466	0.87955847	-0.090447474	-0.97812873	0.81181988	0.36881259
69	0.272	-1.3170926	0.10684396	-0.010665458	-0.70572311	0.041954239	0.1530604	-1.3452746	0.26184641	-0.042581886	-0.8531318	0.053171352	0.18688711	-1.3188746	0.24236629	0.049480729	-0.84353715	0.095484237	0.09833357	-1.4100974	0.30360628	0.0067586984	-0.92109841	0.029996624	0.13726498	-0.97199069	0.43632726	-0.061319591	-0.79430024	0.50517416	0.25260224	-0.96288138	0.41897686	0.067021272	-0.80158585	0.49290064	0.12698155	-0.98147273	0.8431347	-0.07360491	-0.97080422	0.87384889	0.29812432	-0.89389891	0.93169522	-0.017052793	-0.8931285	0.95574755	0.22166043	-1.0611414	1.0002346	0.099864225	-0.87175631	1.4039452	-0.035819516	-0.92991817	1.3956806	0.28948134	-0.97214285	1.4509385	0.12647336	-0.97458548	1.0448534	-0.12005519	-1.081621	1.0619175	0.33812054	-0.76231022	0.87912352	-0.090849127	-0.97044689	0.81346425	0.36863916
